G04 EAGLE Gerber RS-274X export*
G75*
%MOMM*%
%FSLAX34Y34*%
%LPD*%
%INSoldermask Top*%
%IPPOS*%
%AMOC8*
5,1,8,0,0,1.08239X$1,22.5*%
G01*
%ADD10C,2.003197*%
%ADD11C,1.752600*%
%ADD12R,2.003197X2.003197*%
%ADD13C,1.511200*%
%ADD14C,1.803400*%
%ADD15C,1.711200*%
%ADD16C,1.727200*%
%ADD17C,1.711200*%
%ADD18P,1.635708X8X112.500000*%
%ADD19P,1.635708X8X202.500000*%
%ADD20C,1.511200*%
%ADD21R,1.752600X1.752600*%
%ADD22R,1.711200X1.711200*%
%ADD23R,1.511200X1.511200*%
%ADD24R,1.727200X1.727200*%
%ADD25C,3.503200*%
%ADD26C,2.003197*%
%ADD27C,0.959600*%


D10*
X1638300Y1253600D02*
X1638300Y1235600D01*
X1587500Y1235600D02*
X1587500Y1253600D01*
D11*
X2209800Y1282700D03*
X2184908Y1282700D03*
D10*
X2180700Y515620D02*
X2162700Y515620D01*
X2162700Y566420D02*
X2180700Y566420D01*
D12*
X793496Y393700D03*
X818896Y393700D03*
X844296Y393700D03*
X38100Y393700D03*
X38100Y368300D03*
X38100Y342900D03*
X241300Y280921D03*
X266700Y280921D03*
X469900Y280921D03*
X495300Y280921D03*
X406400Y393700D03*
X406400Y368300D03*
X406400Y342900D03*
X1130300Y101600D03*
X1130300Y76200D03*
X1130300Y50800D03*
D13*
X541020Y463360D02*
X541020Y476440D01*
X566420Y476440D02*
X566420Y463360D01*
X693420Y463360D02*
X693420Y476440D01*
X693420Y539560D02*
X693420Y552640D01*
X591820Y476440D02*
X591820Y463360D01*
X617220Y463360D02*
X617220Y476440D01*
X668020Y476440D02*
X668020Y463360D01*
X642620Y463360D02*
X642620Y476440D01*
X668020Y539560D02*
X668020Y552640D01*
X642620Y552640D02*
X642620Y539560D01*
X617220Y539560D02*
X617220Y552640D01*
X591820Y552640D02*
X591820Y539560D01*
X566420Y539560D02*
X566420Y552640D01*
X541020Y552640D02*
X541020Y539560D01*
X1676400Y451040D02*
X1676400Y437960D01*
X1701800Y437960D02*
X1701800Y451040D01*
X1828800Y451040D02*
X1828800Y437960D01*
X1828800Y514160D02*
X1828800Y527240D01*
X1727200Y451040D02*
X1727200Y437960D01*
X1752600Y437960D02*
X1752600Y451040D01*
X1803400Y451040D02*
X1803400Y437960D01*
X1778000Y437960D02*
X1778000Y451040D01*
X1803400Y514160D02*
X1803400Y527240D01*
X1778000Y527240D02*
X1778000Y514160D01*
X1752600Y514160D02*
X1752600Y527240D01*
X1727200Y527240D02*
X1727200Y514160D01*
X1701800Y514160D02*
X1701800Y527240D01*
X1676400Y527240D02*
X1676400Y514160D01*
X1727200Y247840D02*
X1727200Y234760D01*
X1752600Y234760D02*
X1752600Y247840D01*
X1879600Y247840D02*
X1879600Y234760D01*
X1879600Y310960D02*
X1879600Y324040D01*
X1778000Y247840D02*
X1778000Y234760D01*
X1803400Y234760D02*
X1803400Y247840D01*
X1854200Y247840D02*
X1854200Y234760D01*
X1828800Y234760D02*
X1828800Y247840D01*
X1854200Y310960D02*
X1854200Y324040D01*
X1828800Y324040D02*
X1828800Y310960D01*
X1803400Y310960D02*
X1803400Y324040D01*
X1778000Y324040D02*
X1778000Y310960D01*
X1752600Y310960D02*
X1752600Y324040D01*
X1727200Y324040D02*
X1727200Y310960D01*
X1524000Y247840D02*
X1524000Y234760D01*
X1549400Y234760D02*
X1549400Y247840D01*
X1676400Y247840D02*
X1676400Y234760D01*
X1676400Y310960D02*
X1676400Y324040D01*
X1574800Y247840D02*
X1574800Y234760D01*
X1600200Y234760D02*
X1600200Y247840D01*
X1651000Y247840D02*
X1651000Y234760D01*
X1625600Y234760D02*
X1625600Y247840D01*
X1651000Y310960D02*
X1651000Y324040D01*
X1625600Y324040D02*
X1625600Y310960D01*
X1600200Y310960D02*
X1600200Y324040D01*
X1574800Y324040D02*
X1574800Y310960D01*
X1549400Y310960D02*
X1549400Y324040D01*
X1524000Y324040D02*
X1524000Y310960D01*
X1930400Y247840D02*
X1930400Y234760D01*
X1955800Y234760D02*
X1955800Y247840D01*
X2082800Y247840D02*
X2082800Y234760D01*
X2082800Y310960D02*
X2082800Y324040D01*
X1981200Y247840D02*
X1981200Y234760D01*
X2006600Y234760D02*
X2006600Y247840D01*
X2057400Y247840D02*
X2057400Y234760D01*
X2032000Y234760D02*
X2032000Y247840D01*
X2057400Y310960D02*
X2057400Y324040D01*
X2032000Y324040D02*
X2032000Y310960D01*
X2006600Y310960D02*
X2006600Y324040D01*
X1981200Y324040D02*
X1981200Y310960D01*
X1955800Y310960D02*
X1955800Y324040D01*
X1930400Y324040D02*
X1930400Y310960D01*
X93980Y730060D02*
X93980Y743140D01*
X119380Y743140D02*
X119380Y730060D01*
X246380Y730060D02*
X246380Y743140D01*
X246380Y806260D02*
X246380Y819340D01*
X144780Y743140D02*
X144780Y730060D01*
X170180Y730060D02*
X170180Y743140D01*
X220980Y743140D02*
X220980Y730060D01*
X195580Y730060D02*
X195580Y743140D01*
X220980Y806260D02*
X220980Y819340D01*
X195580Y819340D02*
X195580Y806260D01*
X170180Y806260D02*
X170180Y819340D01*
X144780Y819340D02*
X144780Y806260D01*
X119380Y806260D02*
X119380Y819340D01*
X93980Y819340D02*
X93980Y806260D01*
X541020Y743140D02*
X541020Y730060D01*
X566420Y730060D02*
X566420Y743140D01*
X693420Y743140D02*
X693420Y730060D01*
X693420Y806260D02*
X693420Y819340D01*
X591820Y743140D02*
X591820Y730060D01*
X617220Y730060D02*
X617220Y743140D01*
X668020Y743140D02*
X668020Y730060D01*
X642620Y730060D02*
X642620Y743140D01*
X668020Y806260D02*
X668020Y819340D01*
X642620Y819340D02*
X642620Y806260D01*
X617220Y806260D02*
X617220Y819340D01*
X591820Y819340D02*
X591820Y806260D01*
X566420Y806260D02*
X566420Y819340D01*
X541020Y819340D02*
X541020Y806260D01*
X317500Y743140D02*
X317500Y730060D01*
X342900Y730060D02*
X342900Y743140D01*
X469900Y743140D02*
X469900Y730060D01*
X469900Y806260D02*
X469900Y819340D01*
X368300Y743140D02*
X368300Y730060D01*
X393700Y730060D02*
X393700Y743140D01*
X444500Y743140D02*
X444500Y730060D01*
X419100Y730060D02*
X419100Y743140D01*
X444500Y806260D02*
X444500Y819340D01*
X419100Y819340D02*
X419100Y806260D01*
X393700Y806260D02*
X393700Y819340D01*
X368300Y819340D02*
X368300Y806260D01*
X342900Y806260D02*
X342900Y819340D01*
X317500Y819340D02*
X317500Y806260D01*
X93980Y609790D02*
X93980Y596710D01*
X119380Y596710D02*
X119380Y609790D01*
X246380Y609790D02*
X246380Y596710D01*
X246380Y672910D02*
X246380Y685990D01*
X144780Y609790D02*
X144780Y596710D01*
X170180Y596710D02*
X170180Y609790D01*
X220980Y609790D02*
X220980Y596710D01*
X195580Y596710D02*
X195580Y609790D01*
X220980Y672910D02*
X220980Y685990D01*
X195580Y685990D02*
X195580Y672910D01*
X170180Y672910D02*
X170180Y685990D01*
X144780Y685990D02*
X144780Y672910D01*
X119380Y672910D02*
X119380Y685990D01*
X93980Y685990D02*
X93980Y672910D01*
X1879600Y451040D02*
X1879600Y437960D01*
X1905000Y437960D02*
X1905000Y451040D01*
X2032000Y451040D02*
X2032000Y437960D01*
X2032000Y514160D02*
X2032000Y527240D01*
X1930400Y451040D02*
X1930400Y437960D01*
X1955800Y437960D02*
X1955800Y451040D01*
X2006600Y451040D02*
X2006600Y437960D01*
X1981200Y437960D02*
X1981200Y451040D01*
X2006600Y514160D02*
X2006600Y527240D01*
X1981200Y527240D02*
X1981200Y514160D01*
X1955800Y514160D02*
X1955800Y527240D01*
X1930400Y527240D02*
X1930400Y514160D01*
X1905000Y514160D02*
X1905000Y527240D01*
X1879600Y527240D02*
X1879600Y514160D01*
D14*
X889000Y1166368D03*
X889000Y1191768D03*
X914400Y1166368D03*
X914400Y1191768D03*
X939800Y1166368D03*
X939800Y1191768D03*
X965200Y1166368D03*
X965200Y1191768D03*
X990600Y1166368D03*
X990600Y1191768D03*
D15*
X596900Y76200D03*
X596900Y50800D03*
X622300Y76200D03*
X622300Y50800D03*
X647700Y76200D03*
X647700Y50800D03*
X673100Y50800D03*
X673100Y76200D03*
X698500Y50800D03*
X698500Y76200D03*
X723900Y50800D03*
X723900Y76200D03*
X749300Y50800D03*
X749300Y76200D03*
X774700Y50800D03*
X774700Y76200D03*
X800100Y50800D03*
X800100Y76200D03*
X825500Y50800D03*
X825500Y76200D03*
D16*
X1054100Y76200D03*
X1028700Y76200D03*
X1054100Y101600D03*
X1028700Y101600D03*
X1054100Y127000D03*
X1028700Y127000D03*
X1054100Y152400D03*
X1028700Y152400D03*
X1054100Y177800D03*
X1028700Y177800D03*
X1054100Y203200D03*
X1028700Y203200D03*
X1054100Y228600D03*
X1028700Y228600D03*
X1054100Y254000D03*
X1028700Y254000D03*
X1054100Y279400D03*
X1028700Y279400D03*
X1054100Y304800D03*
X1028700Y304800D03*
X1054100Y330200D03*
X1028700Y330200D03*
X1054100Y355600D03*
X1028700Y355600D03*
X1054100Y381000D03*
X1028700Y381000D03*
X1054100Y406400D03*
X1028700Y406400D03*
X1054100Y431800D03*
X1028700Y431800D03*
X1054100Y457200D03*
X1028700Y457200D03*
X1054100Y482600D03*
X1028700Y482600D03*
X1054100Y508000D03*
X1028700Y508000D03*
X1054100Y533400D03*
X1028700Y533400D03*
X1054100Y558800D03*
X1028700Y558800D03*
X1054100Y584200D03*
X1028700Y584200D03*
X1054100Y609600D03*
X1028700Y609600D03*
X1054100Y635000D03*
X1028700Y635000D03*
X1054100Y660400D03*
X1028700Y660400D03*
X1054100Y685800D03*
X1028700Y685800D03*
D14*
X1130300Y1166368D03*
X1130300Y1191768D03*
X1155700Y1166368D03*
X1155700Y1191768D03*
X1181100Y1166368D03*
X1181100Y1191768D03*
X1206500Y1166368D03*
X1206500Y1191768D03*
X1231900Y1166368D03*
X1231900Y1191768D03*
X1371600Y1166368D03*
X1371600Y1191768D03*
X1397000Y1166368D03*
X1397000Y1191768D03*
X1422400Y1166368D03*
X1422400Y1191768D03*
X1447800Y1166368D03*
X1447800Y1191768D03*
X1473200Y1166368D03*
X1473200Y1191768D03*
X177800Y1166368D03*
X177800Y1191768D03*
X203200Y1166368D03*
X203200Y1191768D03*
X228600Y1166368D03*
X228600Y1191768D03*
X254000Y1166368D03*
X254000Y1191768D03*
X279400Y1166368D03*
X279400Y1191768D03*
D15*
X596900Y203200D03*
X596900Y177800D03*
X622300Y203200D03*
X622300Y177800D03*
X647700Y203200D03*
X647700Y177800D03*
X673100Y177800D03*
X673100Y203200D03*
X698500Y177800D03*
X698500Y203200D03*
X723900Y177800D03*
X723900Y203200D03*
X749300Y177800D03*
X749300Y203200D03*
X774700Y177800D03*
X774700Y203200D03*
X800100Y177800D03*
X800100Y203200D03*
X825500Y177800D03*
X825500Y203200D03*
D14*
X419100Y1166368D03*
X419100Y1191768D03*
X444500Y1166368D03*
X444500Y1191768D03*
X469900Y1166368D03*
X469900Y1191768D03*
X495300Y1166368D03*
X495300Y1191768D03*
X520700Y1166368D03*
X520700Y1191768D03*
D15*
X203200Y76200D03*
X203200Y50800D03*
X228600Y76200D03*
X228600Y50800D03*
X254000Y76200D03*
X254000Y50800D03*
X279400Y50800D03*
X279400Y76200D03*
X304800Y50800D03*
X304800Y76200D03*
X330200Y50800D03*
X330200Y76200D03*
X355600Y50800D03*
X355600Y76200D03*
X381000Y50800D03*
X381000Y76200D03*
X406400Y50800D03*
X406400Y76200D03*
X431800Y50800D03*
X431800Y76200D03*
D14*
X660400Y1166368D03*
X660400Y1191768D03*
X685800Y1166368D03*
X685800Y1191768D03*
X711200Y1166368D03*
X711200Y1191768D03*
X736600Y1166368D03*
X736600Y1191768D03*
X762000Y1166368D03*
X762000Y1191768D03*
X2057400Y673100D03*
X2082800Y673100D03*
X2057400Y647700D03*
X2082800Y647700D03*
X2057400Y622300D03*
X2082800Y622300D03*
X2057400Y596900D03*
X2082800Y596900D03*
X2057400Y571500D03*
X2082800Y571500D03*
D15*
X203200Y203200D03*
X203200Y177800D03*
X228600Y203200D03*
X228600Y177800D03*
X254000Y203200D03*
X254000Y177800D03*
X279400Y177800D03*
X279400Y203200D03*
X304800Y177800D03*
X304800Y203200D03*
X330200Y177800D03*
X330200Y203200D03*
X355600Y177800D03*
X355600Y203200D03*
X381000Y177800D03*
X381000Y203200D03*
X406400Y177800D03*
X406400Y203200D03*
X431800Y177800D03*
X431800Y203200D03*
D16*
X952500Y76200D03*
X927100Y76200D03*
X952500Y101600D03*
X927100Y101600D03*
X952500Y127000D03*
X927100Y127000D03*
X952500Y152400D03*
X927100Y152400D03*
X952500Y177800D03*
X927100Y177800D03*
X952500Y203200D03*
X927100Y203200D03*
X952500Y228600D03*
X927100Y228600D03*
X952500Y254000D03*
X927100Y254000D03*
X952500Y279400D03*
X927100Y279400D03*
X952500Y304800D03*
X927100Y304800D03*
X952500Y330200D03*
X927100Y330200D03*
X952500Y355600D03*
X927100Y355600D03*
X952500Y381000D03*
X927100Y381000D03*
X952500Y406400D03*
X927100Y406400D03*
X952500Y431800D03*
X927100Y431800D03*
X952500Y457200D03*
X927100Y457200D03*
X952500Y482600D03*
X927100Y482600D03*
X952500Y508000D03*
X927100Y508000D03*
X952500Y533400D03*
X927100Y533400D03*
X952500Y558800D03*
X927100Y558800D03*
X952500Y584200D03*
X927100Y584200D03*
X952500Y609600D03*
X927100Y609600D03*
X952500Y635000D03*
X927100Y635000D03*
X952500Y660400D03*
X927100Y660400D03*
X952500Y685800D03*
X927100Y685800D03*
D15*
X1778000Y165100D03*
X1778000Y139700D03*
X1803400Y165100D03*
X1803400Y139700D03*
X1828800Y165100D03*
X1828800Y139700D03*
X1854200Y139700D03*
X1854200Y165100D03*
X1879600Y139700D03*
X1879600Y165100D03*
X1905000Y139700D03*
X1905000Y165100D03*
X1930400Y139700D03*
X1930400Y165100D03*
X1955800Y139700D03*
X1955800Y165100D03*
X1981200Y139700D03*
X1981200Y165100D03*
X2006600Y139700D03*
X2006600Y165100D03*
X266700Y901700D03*
X266700Y876300D03*
X292100Y901700D03*
X292100Y876300D03*
X317500Y901700D03*
X317500Y876300D03*
X342900Y876300D03*
X342900Y901700D03*
X368300Y876300D03*
X368300Y901700D03*
X393700Y876300D03*
X393700Y901700D03*
X419100Y876300D03*
X419100Y901700D03*
X444500Y876300D03*
X444500Y901700D03*
X469900Y876300D03*
X469900Y901700D03*
X495300Y876300D03*
X495300Y901700D03*
D16*
X1524000Y38100D03*
X1524000Y63500D03*
X1549400Y38100D03*
X1549400Y63500D03*
X1574800Y38100D03*
X1574800Y63500D03*
X1600200Y38100D03*
X1600200Y63500D03*
X1625600Y38100D03*
X1625600Y63500D03*
X1651000Y38100D03*
X1651000Y63500D03*
X1676400Y38100D03*
X1676400Y63500D03*
X1701800Y38100D03*
X1701800Y63500D03*
X1727200Y38100D03*
X1727200Y63500D03*
X1752600Y38100D03*
X1752600Y63500D03*
X1778000Y38100D03*
X1778000Y63500D03*
X1803400Y38100D03*
X1803400Y63500D03*
X1828800Y38100D03*
X1828800Y63500D03*
X1854200Y38100D03*
X1854200Y63500D03*
X1879600Y38100D03*
X1879600Y63500D03*
X1905000Y38100D03*
X1905000Y63500D03*
X1930400Y38100D03*
X1930400Y63500D03*
X1955800Y38100D03*
X1955800Y63500D03*
X1981200Y38100D03*
X1981200Y63500D03*
X2006600Y38100D03*
X2006600Y63500D03*
X2032000Y38100D03*
X2032000Y63500D03*
X2057400Y38100D03*
X2057400Y63500D03*
X2082800Y38100D03*
X2082800Y63500D03*
X2108200Y38100D03*
X2108200Y63500D03*
X2133600Y38100D03*
X2133600Y63500D03*
D15*
X804500Y817100D03*
X804500Y791700D03*
X829900Y817100D03*
X829900Y791700D03*
X855300Y817100D03*
X855300Y791700D03*
X880700Y791700D03*
X880700Y817100D03*
X906100Y791700D03*
X906100Y817100D03*
X931500Y791700D03*
X931500Y817100D03*
X956900Y791700D03*
X956900Y817100D03*
X982300Y791700D03*
X982300Y817100D03*
X1007700Y791700D03*
X1007700Y817100D03*
X1033100Y791700D03*
X1033100Y817100D03*
D14*
X1536700Y139700D03*
X1536700Y165100D03*
X1562100Y139700D03*
X1562100Y165100D03*
X1587500Y139700D03*
X1587500Y165100D03*
X1612900Y139700D03*
X1612900Y165100D03*
X1638300Y139700D03*
X1638300Y165100D03*
D16*
X165100Y1282700D03*
X165100Y1308100D03*
X190500Y1282700D03*
X190500Y1308100D03*
X215900Y1282700D03*
X215900Y1308100D03*
X241300Y1282700D03*
X241300Y1308100D03*
X266700Y1282700D03*
X266700Y1308100D03*
X292100Y1282700D03*
X292100Y1308100D03*
X317500Y1282700D03*
X317500Y1308100D03*
X342900Y1282700D03*
X342900Y1308100D03*
X368300Y1282700D03*
X368300Y1308100D03*
X393700Y1282700D03*
X393700Y1308100D03*
X419100Y1282700D03*
X419100Y1308100D03*
X444500Y1282700D03*
X444500Y1308100D03*
X469900Y1282700D03*
X469900Y1308100D03*
X495300Y1282700D03*
X495300Y1308100D03*
X520700Y1282700D03*
X520700Y1308100D03*
X546100Y1282700D03*
X546100Y1308100D03*
X571500Y1282700D03*
X571500Y1308100D03*
X596900Y1282700D03*
X596900Y1308100D03*
X622300Y1282700D03*
X622300Y1308100D03*
X647700Y1282700D03*
X647700Y1308100D03*
X673100Y1282700D03*
X673100Y1308100D03*
X698500Y1282700D03*
X698500Y1308100D03*
X723900Y1282700D03*
X723900Y1308100D03*
X749300Y1282700D03*
X749300Y1308100D03*
X774700Y1282700D03*
X774700Y1308100D03*
X876300Y1282700D03*
X876300Y1308100D03*
X901700Y1282700D03*
X901700Y1308100D03*
X927100Y1282700D03*
X927100Y1308100D03*
X952500Y1282700D03*
X952500Y1308100D03*
X977900Y1282700D03*
X977900Y1308100D03*
X1003300Y1282700D03*
X1003300Y1308100D03*
X1028700Y1282700D03*
X1028700Y1308100D03*
X1054100Y1282700D03*
X1054100Y1308100D03*
X1079500Y1282700D03*
X1079500Y1308100D03*
X1104900Y1282700D03*
X1104900Y1308100D03*
X1130300Y1282700D03*
X1130300Y1308100D03*
X1155700Y1282700D03*
X1155700Y1308100D03*
X1181100Y1282700D03*
X1181100Y1308100D03*
X1206500Y1282700D03*
X1206500Y1308100D03*
X1231900Y1282700D03*
X1231900Y1308100D03*
X1257300Y1282700D03*
X1257300Y1308100D03*
X1282700Y1282700D03*
X1282700Y1308100D03*
X1308100Y1282700D03*
X1308100Y1308100D03*
X1333500Y1282700D03*
X1333500Y1308100D03*
X1358900Y1282700D03*
X1358900Y1308100D03*
X1384300Y1282700D03*
X1384300Y1308100D03*
X1409700Y1282700D03*
X1409700Y1308100D03*
X1435100Y1282700D03*
X1435100Y1308100D03*
X1460500Y1282700D03*
X1460500Y1308100D03*
X1485900Y1282700D03*
X1485900Y1308100D03*
D14*
X177800Y1028700D03*
X177800Y1054100D03*
X203200Y1028700D03*
X203200Y1054100D03*
X228600Y1028700D03*
X228600Y1054100D03*
X254000Y1028700D03*
X254000Y1054100D03*
X279400Y1028700D03*
X279400Y1054100D03*
D12*
X1689100Y571500D03*
X1714500Y571500D03*
X1739900Y571500D03*
X1892300Y571500D03*
X1917700Y571500D03*
X1943100Y571500D03*
D10*
X2162700Y325120D02*
X2180700Y325120D01*
X2180700Y375920D02*
X2162700Y375920D01*
X2162700Y426720D02*
X2180700Y426720D01*
X2180700Y134620D02*
X2162700Y134620D01*
X2162700Y185420D02*
X2180700Y185420D01*
X2180700Y236220D02*
X2162700Y236220D01*
D17*
X2169080Y1051560D02*
X2154000Y1051560D01*
X2154000Y1076960D02*
X2169080Y1076960D01*
X2169080Y1026160D02*
X2154000Y1026160D01*
D18*
X1541780Y583692D03*
X1541780Y685292D03*
X1595654Y800100D03*
X1595654Y901700D03*
X1511887Y800100D03*
X1511887Y901700D03*
X1428119Y800100D03*
X1428119Y901700D03*
X1344352Y800100D03*
X1344352Y901700D03*
D19*
X1702308Y378714D03*
X1600708Y378714D03*
D20*
X1752600Y368300D03*
X1778000Y393700D03*
X1803400Y368300D03*
D18*
X641300Y594200D03*
X641300Y695800D03*
D20*
X704800Y619600D03*
X679400Y645000D03*
X704800Y670400D03*
D18*
X328300Y594200D03*
X328300Y695800D03*
D20*
X404500Y619600D03*
X379100Y645000D03*
X404500Y670400D03*
D18*
X1477164Y583692D03*
X1477164Y685292D03*
X1302468Y800100D03*
X1302468Y901700D03*
X1637538Y800100D03*
X1637538Y901700D03*
X1553771Y800100D03*
X1553771Y901700D03*
X1470003Y800100D03*
X1470003Y901700D03*
X1386236Y800100D03*
X1386236Y901700D03*
D19*
X1943100Y381000D03*
X1841500Y381000D03*
D20*
X1993900Y368300D03*
X2019300Y393700D03*
X2044700Y368300D03*
D18*
X501600Y594200D03*
X501600Y695800D03*
D20*
X577800Y619600D03*
X552400Y645000D03*
X577800Y670400D03*
D18*
X1713992Y1218946D03*
X1713992Y1320546D03*
X1412548Y583692D03*
X1412548Y685292D03*
X1347933Y583692D03*
X1347933Y685292D03*
D21*
X2077720Y941324D03*
D11*
X2077720Y1228344D03*
D18*
X1283317Y583692D03*
X1283317Y685292D03*
X1218701Y583692D03*
X1218701Y685292D03*
X1218701Y800100D03*
X1218701Y901700D03*
X1260585Y800100D03*
X1260585Y901700D03*
D22*
X963300Y1011700D03*
X1039500Y1011700D03*
X1039500Y910100D03*
X963300Y910100D03*
X798200Y1011700D03*
X874400Y1011700D03*
X874400Y910100D03*
X798200Y910100D03*
D20*
X1541780Y558292D03*
X1541780Y532892D03*
X1520446Y774700D03*
X1520446Y749300D03*
X1445009Y774700D03*
X1445009Y749300D03*
X1369573Y774700D03*
X1369573Y749300D03*
X2108200Y1295400D03*
X2033200Y1295400D03*
D23*
X2184400Y1168400D03*
D20*
X2209800Y1168400D03*
X2209800Y1219200D03*
X2184400Y1219200D03*
X1714500Y1193800D03*
X1714500Y1168400D03*
X1477164Y558292D03*
X1477164Y532892D03*
X1412548Y558292D03*
X1412548Y532892D03*
X1347933Y558292D03*
X1347933Y532892D03*
X1283317Y558292D03*
X1283317Y532892D03*
X1218701Y558292D03*
X1218701Y532892D03*
X1218701Y774700D03*
X1218701Y749300D03*
X1294137Y774700D03*
X1294137Y749300D03*
X1595882Y774700D03*
X1595882Y749300D03*
D23*
X1219200Y165100D03*
D20*
X1219200Y190500D03*
X1219200Y215900D03*
X1219200Y241300D03*
X1219200Y266700D03*
X1219200Y292100D03*
X1219200Y317500D03*
X1219200Y342900D03*
X1143000Y342900D03*
X1143000Y317500D03*
X1143000Y292100D03*
X1143000Y266700D03*
X1143000Y241300D03*
X1143000Y215900D03*
X1143000Y190500D03*
X1143000Y165100D03*
D23*
X1397000Y165100D03*
D20*
X1397000Y190500D03*
X1397000Y215900D03*
X1397000Y241300D03*
X1397000Y266700D03*
X1397000Y292100D03*
X1397000Y317500D03*
X1397000Y342900D03*
X1320800Y342900D03*
X1320800Y317500D03*
X1320800Y292100D03*
X1320800Y266700D03*
X1320800Y241300D03*
X1320800Y215900D03*
X1320800Y190500D03*
X1320800Y165100D03*
D24*
X1257300Y266700D03*
D16*
X1282700Y254000D03*
X1257300Y241300D03*
D23*
X114300Y330200D03*
D20*
X139700Y330200D03*
X165100Y330200D03*
X190500Y330200D03*
X215900Y330200D03*
X241300Y330200D03*
X266700Y330200D03*
X292100Y330200D03*
X317500Y330200D03*
X342900Y330200D03*
X342900Y406400D03*
X317500Y406400D03*
X292100Y406400D03*
X266700Y406400D03*
X241300Y406400D03*
X215900Y406400D03*
X190500Y406400D03*
X165100Y406400D03*
X139700Y406400D03*
X114300Y406400D03*
D23*
X482600Y330200D03*
D20*
X508000Y330200D03*
X533400Y330200D03*
X558800Y330200D03*
X584200Y330200D03*
X609600Y330200D03*
X635000Y330200D03*
X660400Y330200D03*
X685800Y330200D03*
X711200Y330200D03*
X711200Y406400D03*
X685800Y406400D03*
X660400Y406400D03*
X635000Y406400D03*
X609600Y406400D03*
X584200Y406400D03*
X558800Y406400D03*
X533400Y406400D03*
X508000Y406400D03*
X482600Y406400D03*
D23*
X1193800Y38100D03*
D20*
X1219200Y38100D03*
X1244600Y38100D03*
X1270000Y38100D03*
X1295400Y38100D03*
X1320800Y38100D03*
X1346200Y38100D03*
X1371600Y38100D03*
X1397000Y38100D03*
X1422400Y38100D03*
X1422400Y114300D03*
X1397000Y114300D03*
X1371600Y114300D03*
X1346200Y114300D03*
X1320800Y114300D03*
X1295400Y114300D03*
X1270000Y114300D03*
X1244600Y114300D03*
X1219200Y114300D03*
X1193800Y114300D03*
D23*
X856996Y469900D03*
D20*
X856996Y495300D03*
X856996Y520700D03*
X856996Y546100D03*
X856996Y571500D03*
X856996Y596900D03*
X856996Y622300D03*
X856996Y647700D03*
X856996Y673100D03*
X856996Y698500D03*
X780796Y698500D03*
X780796Y673100D03*
X780796Y647700D03*
X780796Y622300D03*
X780796Y596900D03*
X780796Y571500D03*
X780796Y546100D03*
X780796Y520700D03*
X780796Y495300D03*
X780796Y469900D03*
D15*
X1713738Y676148D03*
X1713738Y650748D03*
X1739138Y676148D03*
X1739138Y650748D03*
X1764538Y676148D03*
X1764538Y650748D03*
X1789938Y650748D03*
X1789938Y676148D03*
X1815338Y650748D03*
X1815338Y676148D03*
X1840738Y650748D03*
X1840738Y676148D03*
X1866138Y650748D03*
X1866138Y676148D03*
X1891538Y650748D03*
X1891538Y676148D03*
X1916938Y650748D03*
X1916938Y676148D03*
X1942338Y650748D03*
X1942338Y676148D03*
D25*
X1790000Y1280000D03*
X2217018Y51194D03*
X60000Y60000D03*
X60000Y1280000D03*
X1130000Y710000D03*
D20*
X1993900Y1054100D03*
X1993900Y1079500D03*
X1993900Y1104900D03*
X1917700Y1104900D03*
X1917700Y1079500D03*
X1917700Y1054100D03*
X1630426Y1171702D03*
X1595374Y1171702D03*
D26*
X1634744Y1070864D03*
X1584706Y1070864D03*
D10*
X2162954Y650494D02*
X2180954Y650494D01*
X2180954Y701294D02*
X2162954Y701294D01*
X2164224Y785368D02*
X2182224Y785368D01*
X2182224Y836168D02*
X2164224Y836168D01*
D27*
X618236Y777870D03*
X2019173Y328935D03*
X1995551Y458719D03*
X1310386Y254762D03*
X1293876Y331294D03*
X1324610Y363982D03*
X1197356Y412242D03*
X1152652Y450596D03*
X1097280Y508000D03*
X1068578Y532638D03*
X716534Y812292D03*
X711454Y836676D03*
X336296Y1105154D03*
X1243650Y297970D03*
X1275461Y331294D03*
X1306322Y363982D03*
X1230865Y548894D03*
X468376Y1109980D03*
X349504Y1224026D03*
X990346Y843026D03*
X1205992Y298704D03*
X1257046Y331294D03*
X1308354Y383032D03*
X1164661Y959542D03*
X1029970Y1045873D03*
X882627Y1142746D03*
X574040Y1233424D03*
X1256538Y378968D03*
X1154120Y976179D03*
X1066546Y1045873D03*
X977900Y1149858D03*
X1144976Y970590D03*
X1056132Y1045873D03*
X955802Y1150874D03*
X1194816Y712470D03*
X1196086Y979255D03*
X1245362Y1045873D03*
X1301911Y1155793D03*
X1132341Y639581D03*
X1687306Y734298D03*
X653796Y776873D03*
X302006Y777494D03*
X278610Y695800D03*
X251973Y641731D03*
X177800Y903610D03*
X680847Y747781D03*
X706374Y776873D03*
X1063882Y730634D03*
X1218438Y141224D03*
X996696Y116840D03*
X783082Y246126D03*
X655066Y434086D03*
X678434Y358394D03*
X645414Y393954D03*
X814578Y292707D03*
X363573Y850138D03*
X510043Y505518D03*
X812503Y371460D03*
X825779Y293649D03*
X685193Y425704D03*
X831850Y332740D03*
X854456Y312928D03*
X880872Y292354D03*
X724888Y305616D03*
X754167Y247170D03*
X797052Y228600D03*
X766826Y311912D03*
X713486Y432054D03*
X605765Y446811D03*
X601218Y292453D03*
X601218Y227807D03*
X160048Y433578D03*
X170152Y433578D03*
X209296Y318234D03*
X74168Y321818D03*
X73660Y449326D03*
X251714Y318234D03*
X127014Y454392D03*
X163322Y953770D03*
X369316Y302288D03*
X257603Y309833D03*
X282194Y302768D03*
X579122Y419199D03*
X541020Y715744D03*
X492760Y766826D03*
X673100Y434086D03*
X701040Y525018D03*
X722630Y624840D03*
X735076Y681228D03*
X740918Y744728D03*
X766318Y776224D03*
X729488Y814324D03*
X918210Y1131062D03*
X1285215Y1233449D03*
X1088898Y37338D03*
X1098804Y110490D03*
X1103630Y136652D03*
X1103884Y265176D03*
X1097788Y667004D03*
X1115314Y780796D03*
X1131570Y942086D03*
X1289050Y1041908D03*
X617220Y101346D03*
X651510Y18034D03*
X1108908Y110744D03*
X1114044Y135890D03*
X1114806Y266954D03*
X1113734Y653542D03*
X1128014Y780288D03*
X1135634Y930656D03*
X1303274Y1038352D03*
X1514955Y1321054D03*
X1100142Y35405D03*
X136003Y462873D03*
X383993Y403915D03*
X499261Y381199D03*
X147384Y462619D03*
X499773Y368808D03*
X388565Y386643D03*
X683514Y114554D03*
X202159Y623595D03*
X103344Y307374D03*
X196596Y446250D03*
X231902Y446250D03*
X324866Y288513D03*
X331470Y262354D03*
X340614Y225552D03*
X354330Y142847D03*
X441960Y292862D03*
X441706Y273304D03*
X454660Y291084D03*
X515112Y273050D03*
X496824Y262354D03*
X1707245Y714359D03*
X187988Y531622D03*
X452374Y401927D03*
X586994Y292453D03*
X632714Y227584D03*
X272542Y761210D03*
X280613Y549979D03*
X579755Y444070D03*
X671817Y292961D03*
X708660Y227553D03*
X279343Y539750D03*
X517652Y426057D03*
X588927Y357378D03*
X671830Y227584D03*
X827278Y345948D03*
X497586Y496062D03*
X517155Y513844D03*
X869638Y364686D03*
X517409Y524326D03*
X832640Y504993D03*
X873091Y468469D03*
X902998Y438404D03*
X690527Y377952D03*
X823054Y324452D03*
X836422Y587571D03*
X912402Y501430D03*
X965570Y420232D03*
X735612Y534780D03*
X851408Y414528D03*
X813816Y451612D03*
X832640Y515730D03*
X1009904Y337792D03*
X966442Y403352D03*
X966442Y384440D03*
X872744Y493522D03*
X908078Y456946D03*
X1318387Y75565D03*
X1785592Y475742D03*
X1690445Y203021D03*
X1859392Y113444D03*
X1920240Y214122D03*
X1909290Y331647D03*
X1870084Y108322D03*
X1942846Y115824D03*
X1917446Y241300D03*
X1676271Y193927D03*
X1663954Y207010D03*
X1873612Y84681D03*
X1562100Y228346D03*
X1946824Y538140D03*
X1739392Y545310D03*
X1894590Y506226D03*
X1688617Y611149D03*
X1678686Y550418D03*
X1703070Y594614D03*
X1801876Y554990D03*
X1821180Y556768D03*
X1838198Y560832D03*
X1991868Y692658D03*
X2014474Y650240D03*
X1854175Y280441D03*
X2008378Y262128D03*
X1536446Y287274D03*
X1776476Y209042D03*
X1729660Y215392D03*
X1733324Y289560D03*
X1807868Y218440D03*
X1864691Y215420D03*
X1864868Y288798D03*
X1828800Y343380D03*
X1744281Y196405D03*
X1905805Y192278D03*
X1721885Y207165D03*
X1703299Y281965D03*
X1874907Y186022D03*
X1701316Y215420D03*
X1699260Y266700D03*
X566674Y776873D03*
X668020Y776873D03*
X355346Y828266D03*
X382270Y828266D03*
X496570Y795020D03*
X532316Y767148D03*
X575056Y835886D03*
X595376Y776873D03*
X605028Y756158D03*
X588010Y837410D03*
X640334Y837410D03*
X1975104Y377190D03*
X1928622Y339090D03*
X1858772Y442722D03*
M02*
