M48
;GenerationSoftware,Autodesk,EAGLE,9.6.1*%
;CreationDate,2021-04-14T08:48:49Z*%
FMAT,2
ICI,OFF
METRIC,TZ,000.000
T3C0.800
T2C1.000
T1C1.200
%
G90
M71
T1
X163830Y124460
X158750Y124460
X217195Y70129
X217195Y65049
X217170Y51562
X217170Y56642
X79350Y39370
X81890Y39370
X84430Y39370
X3810Y39370
X3810Y36830
X3810Y34290
X24130Y28092
X26670Y28092
X46990Y28092
X49530Y28092
X40640Y39370
X40640Y36830
X40640Y34290
X113030Y10160
X113030Y7620
X113030Y5080
X158471Y107086
X163474Y107086
X217322Y83617
X217170Y23622
X217170Y18542
X217170Y13462
X217170Y42672
X217170Y37592
X217170Y32512
X194310Y57150
X191770Y57150
X189230Y57150
X173990Y57150
X171450Y57150
X168910Y57150
X217322Y78537
T2
X220980Y128270
X218491Y128270
X41910Y130810
X44450Y128270
X44450Y130810
X46990Y128270
X46990Y130810
X49530Y128270
X49530Y130810
X52070Y128270
X52070Y130810
X54610Y128270
X54610Y130810
X57150Y128270
X57150Y130810
X59690Y128270
X59690Y130810
X62230Y128270
X62230Y130810
X64770Y128270
X64770Y130810
X67310Y128270
X67310Y130810
X69850Y128270
X69850Y130810
X72390Y128270
X72390Y130810
X74930Y128270
X74930Y130810
X77470Y128270
X77470Y130810
X87630Y128270
X87630Y130810
X90170Y128270
X90170Y130810
X92710Y128270
X92710Y130810
X95250Y128270
X95250Y130810
X97790Y128270
X97790Y130810
X100330Y128270
X100330Y130810
X102870Y128270
X102870Y130810
X105410Y128270
X105410Y130810
X107950Y128270
X107950Y130810
X110490Y128270
X110490Y130810
X113030Y128270
X113030Y130810
X115570Y128270
X115570Y130810
X118110Y128270
X118110Y130810
X120650Y128270
X120650Y130810
X123190Y128270
X123190Y130810
X125730Y128270
X125730Y130810
X128270Y128270
X128270Y130810
X130810Y128270
X130810Y130810
X133350Y128270
X133350Y130810
X135890Y128270
X135890Y130810
X138430Y128270
X138430Y130810
X140970Y128270
X140970Y130810
X143510Y128270
X143510Y130810
X146050Y128270
X146050Y130810
X148590Y128270
X148590Y130810
X17780Y102870
X17780Y105410
X20320Y102870
X20320Y105410
X22860Y102870
X22860Y105410
X25400Y102870
X25400Y105410
X27940Y102870
X27940Y105410
X216154Y105156
X216154Y107696
X105410Y50800
X216154Y102616
X207772Y94132
X207772Y122834
X96330Y101170
X103950Y101170
X103950Y91010
X96330Y91010
X79820Y101170
X87440Y101170
X87440Y91010
X79820Y91010
X171374Y67615
X171374Y65075
X173914Y67615
X173914Y65075
X176454Y67615
X176454Y65075
X178994Y65075
X178994Y67615
X181534Y65075
X181534Y67615
X184074Y65075
X184074Y67615
X186614Y65075
X186614Y67615
X189154Y65075
X189154Y67615
X191694Y65075
X191694Y67615
X194234Y65075
X194234Y67615
X88900Y116637
X88900Y119177
X91440Y116637
X91440Y119177
X93980Y116637
X93980Y119177
X96520Y116637
X96520Y119177
X99060Y116637
X99060Y119177
X59690Y7620
X59690Y5080
X62230Y7620
X62230Y5080
X64770Y7620
X64770Y5080
X67310Y5080
X67310Y7620
X69850Y5080
X69850Y7620
X72390Y5080
X72390Y7620
X74930Y5080
X74930Y7620
X77470Y5080
X77470Y7620
X80010Y5080
X80010Y7620
X82550Y5080
X82550Y7620
X105410Y7620
X102870Y7620
X105410Y10160
X102870Y10160
X105410Y12700
X102870Y12700
X105410Y15240
X102870Y15240
X105410Y17780
X102870Y17780
X105410Y20320
X102870Y20320
X105410Y22860
X102870Y22860
X105410Y25400
X102870Y25400
X105410Y27940
X102870Y27940
X105410Y30480
X102870Y30480
X105410Y33020
X102870Y33020
X105410Y35560
X102870Y35560
X105410Y38100
X102870Y38100
X105410Y40640
X102870Y40640
X105410Y43180
X102870Y43180
X105410Y45720
X102870Y45720
X105410Y48260
X102870Y48260
X102870Y50800
X105410Y53340
X102870Y53340
X105410Y55880
X102870Y55880
X105410Y58420
X102870Y58420
X105410Y60960
X102870Y60960
X105410Y63500
X102870Y63500
X105410Y66040
X102870Y66040
X105410Y68580
X102870Y68580
X113030Y116637
X113030Y119177
X115570Y116637
X115570Y119177
X118110Y116637
X118110Y119177
X120650Y116637
X120650Y119177
X123190Y116637
X123190Y119177
X137160Y116637
X137160Y119177
X139700Y116637
X139700Y119177
X142240Y116637
X142240Y119177
X144780Y116637
X144780Y119177
X147320Y116637
X147320Y119177
X17780Y116637
X17780Y119177
X20320Y116637
X20320Y119177
X22860Y116637
X22860Y119177
X25400Y116637
X25400Y119177
X27940Y116637
X27940Y119177
X59690Y20320
X59690Y17780
X62230Y20320
X62230Y17780
X64770Y20320
X64770Y17780
X67310Y17780
X67310Y20320
X69850Y17780
X69850Y20320
X72390Y17780
X72390Y20320
X74930Y17780
X74930Y20320
X77470Y17780
X77470Y20320
X80010Y17780
X80010Y20320
X82550Y17780
X82550Y20320
X41910Y116637
X41910Y119177
X44450Y116637
X44450Y119177
X46990Y116637
X46990Y119177
X49530Y116637
X49530Y119177
X52070Y116637
X52070Y119177
X20320Y7620
X20320Y5080
X22860Y7620
X22860Y5080
X25400Y7620
X25400Y5080
X27940Y5080
X27940Y7620
X30480Y5080
X30480Y7620
X33020Y5080
X33020Y7620
X35560Y5080
X35560Y7620
X38100Y5080
X38100Y7620
X40640Y5080
X40640Y7620
X43180Y5080
X43180Y7620
X66040Y116637
X66040Y119177
X68580Y116637
X68580Y119177
X71120Y116637
X71120Y119177
X73660Y116637
X73660Y119177
X76200Y116637
X76200Y119177
X205740Y67310
X208280Y67310
X205740Y64770
X208280Y64770
X205740Y62230
X208280Y62230
X205740Y59690
X208280Y59690
X205740Y57150
X208280Y57150
X20320Y20320
X20320Y17780
X22860Y20320
X22860Y17780
X25400Y20320
X25400Y17780
X27940Y17780
X27940Y20320
X30480Y17780
X30480Y20320
X33020Y17780
X33020Y20320
X35560Y17780
X35560Y20320
X38100Y17780
X38100Y20320
X40640Y17780
X40640Y20320
X43180Y17780
X43180Y20320
X95250Y7620
X92710Y7620
X95250Y10160
X92710Y10160
X95250Y12700
X92710Y12700
X95250Y15240
X92710Y15240
X95250Y17780
X92710Y17780
X95250Y20320
X92710Y20320
X95250Y22860
X92710Y22860
X95250Y25400
X92710Y25400
X95250Y27940
X92710Y27940
X95250Y30480
X92710Y30480
X95250Y33020
X92710Y33020
X95250Y35560
X92710Y35560
X95250Y38100
X92710Y38100
X95250Y40640
X92710Y40640
X95250Y43180
X92710Y43180
X95250Y45720
X92710Y45720
X95250Y48260
X92710Y48260
X95250Y50800
X92710Y50800
X95250Y53340
X92710Y53340
X95250Y55880
X92710Y55880
X95250Y58420
X92710Y58420
X95250Y60960
X92710Y60960
X95250Y63500
X92710Y63500
X95250Y66040
X92710Y66040
X95250Y68580
X92710Y68580
X177800Y16510
X177800Y13970
X180340Y16510
X180340Y13970
X182880Y16510
X182880Y13970
X185420Y13970
X185420Y16510
X187960Y13970
X187960Y16510
X190500Y13970
X190500Y16510
X193040Y13970
X193040Y16510
X195580Y13970
X195580Y16510
X198120Y13970
X198120Y16510
X200660Y13970
X200660Y16510
X26670Y90170
X26670Y87630
X29210Y90170
X29210Y87630
X31750Y90170
X31750Y87630
X34290Y87630
X34290Y90170
X36830Y87630
X36830Y90170
X39370Y87630
X39370Y90170
X41910Y87630
X41910Y90170
X44450Y87630
X44450Y90170
X46990Y87630
X46990Y90170
X49530Y87630
X49530Y90170
X152400Y3810
X152400Y6350
X154940Y3810
X154940Y6350
X157480Y3810
X157480Y6350
X160020Y3810
X160020Y6350
X162560Y3810
X162560Y6350
X165100Y3810
X165100Y6350
X167640Y3810
X167640Y6350
X170180Y3810
X170180Y6350
X172720Y3810
X172720Y6350
X175260Y3810
X175260Y6350
X177800Y3810
X177800Y6350
X180340Y3810
X180340Y6350
X182880Y3810
X182880Y6350
X185420Y3810
X185420Y6350
X187960Y3810
X187960Y6350
X190500Y3810
X190500Y6350
X193040Y3810
X193040Y6350
X195580Y3810
X195580Y6350
X198120Y3810
X198120Y6350
X200660Y3810
X200660Y6350
X203200Y3810
X203200Y6350
X205740Y3810
X205740Y6350
X208280Y3810
X208280Y6350
X210820Y3810
X210820Y6350
X213360Y3810
X213360Y6350
X80450Y81710
X80450Y79170
X82990Y81710
X82990Y79170
X85530Y81710
X85530Y79170
X88070Y79170
X88070Y81710
X90610Y79170
X90610Y81710
X93150Y79170
X93150Y81710
X95690Y79170
X95690Y81710
X98230Y79170
X98230Y81710
X100770Y79170
X100770Y81710
X103310Y79170
X103310Y81710
X153670Y13970
X153670Y16510
X156210Y13970
X156210Y16510
X158750Y13970
X158750Y16510
X161290Y13970
X161290Y16510
X163830Y13970
X163830Y16510
X16510Y128270
X16510Y130810
X19050Y128270
X19050Y130810
X21590Y128270
X21590Y130810
X24130Y128270
X24130Y130810
X26670Y128270
X26670Y130810
X29210Y128270
X29210Y130810
X31750Y128270
X31750Y130810
X34290Y128270
X34290Y130810
X36830Y128270
X36830Y130810
X39370Y128270
X39370Y130810
X41910Y128270
T3
X54102Y46990
X56642Y46990
X69342Y46990
X69342Y54610
X59182Y46990
X61722Y46990
X66802Y46990
X64262Y46990
X66802Y54610
X64262Y54610
X61722Y54610
X59182Y54610
X56642Y54610
X54102Y54610
X167640Y44450
X170180Y44450
X182880Y44450
X182880Y52070
X172720Y44450
X175260Y44450
X180340Y44450
X177800Y44450
X180340Y52070
X177800Y52070
X175260Y52070
X172720Y52070
X170180Y52070
X167640Y52070
X172720Y24130
X175260Y24130
X187960Y24130
X187960Y31750
X177800Y24130
X180340Y24130
X185420Y24130
X182880Y24130
X185420Y31750
X182880Y31750
X180340Y31750
X177800Y31750
X175260Y31750
X172720Y31750
X152400Y24130
X154940Y24130
X167640Y24130
X167640Y31750
X157480Y24130
X160020Y24130
X165100Y24130
X162560Y24130
X165100Y31750
X162560Y31750
X160020Y31750
X157480Y31750
X154940Y31750
X152400Y31750
X193040Y24130
X195580Y24130
X208280Y24130
X208280Y31750
X198120Y24130
X200660Y24130
X205740Y24130
X203200Y24130
X205740Y31750
X203200Y31750
X200660Y31750
X198120Y31750
X195580Y31750
X193040Y31750
X9398Y73660
X11938Y73660
X24638Y73660
X24638Y81280
X14478Y73660
X17018Y73660
X22098Y73660
X19558Y73660
X22098Y81280
X19558Y81280
X17018Y81280
X14478Y81280
X11938Y81280
X9398Y81280
X54102Y73660
X56642Y73660
X69342Y73660
X69342Y81280
X59182Y73660
X61722Y73660
X66802Y73660
X66802Y81280
X64262Y81280
X61722Y81280
X59182Y81280
X56642Y81280
X54102Y81280
X31750Y73660
X34290Y73660
X46990Y73660
X46990Y81280
X36830Y73660
X39370Y73660
X44450Y73660
X41910Y73660
X44450Y81280
X41910Y81280
X39370Y81280
X36830Y81280
X34290Y81280
X31750Y81280
X9398Y60325
X11938Y60325
X24638Y60325
X24638Y67945
X14478Y60325
X17018Y60325
X22098Y60325
X19558Y60325
X22098Y67945
X19558Y67945
X17018Y67945
X67940Y64500
X70480Y67040
X32830Y59420
X32830Y69580
X40450Y61960
X37910Y64500
X40450Y67040
X203200Y44450
X147716Y68529
X130247Y80010
X130247Y90170
X163754Y80010
X163754Y90170
X155377Y80010
X155377Y90170
X147000Y80010
X147000Y90170
X138624Y80010
X138624Y90170
X194310Y38100
X184150Y38100
X199390Y36830
X201930Y39370
X204470Y36830
X50160Y59420
X50160Y69580
X57780Y61960
X55240Y64500
X57780Y67040
X171399Y121895
X171399Y132055
X141255Y58369
X141255Y68529
X134793Y58369
X134793Y68529
X193040Y52070
X195580Y52070
X128332Y58369
X128332Y68529
X121870Y58369
X121870Y68529
X121870Y80010
X121870Y90170
X126058Y80010
X126058Y90170
X198120Y52070
X200660Y52070
X198120Y44450
X200660Y44450
X195580Y44450
X193040Y44450
X203200Y52070
X64262Y73660
X154178Y55829
X154178Y53289
X152045Y77470
X152045Y74930
X144501Y77470
X144501Y74930
X136957Y77470
X136957Y74930
X210820Y129540
X203320Y129540
X218440Y116840
X220980Y116840
X220980Y121920
X218440Y121920
X171450Y119380
X171450Y116840
X147716Y55829
X147716Y53289
X141255Y55829
X141255Y53289
X134793Y55829
X134793Y53289
X128332Y55829
X128332Y53289
X121870Y55829
X121870Y53289
X121870Y77470
X121870Y74930
X129414Y77470
X129414Y74930
X159588Y77470
X159588Y74930
X121920Y16510
X121920Y19050
X121920Y21590
X121920Y24130
X121920Y26670
X121920Y29210
X121920Y31750
X121920Y34290
X114300Y34290
X114300Y31750
X114300Y29210
X114300Y26670
X114300Y24130
X114300Y21590
X114300Y19050
X114300Y16510
X139700Y16510
X139700Y19050
X139700Y21590
X139700Y24130
X139700Y26670
X139700Y29210
X139700Y31750
X139700Y34290
X132080Y34290
X132080Y31750
X132080Y29210
X132080Y26670
X132080Y24130
X132080Y21590
X132080Y19050
X132080Y16510
X125730Y26670
X128270Y25400
X125730Y24130
X147716Y58369
X13970Y33020
X16510Y33020
X19050Y33020
X21590Y33020
X24130Y33020
X26670Y33020
X29210Y33020
X31750Y33020
X34290Y33020
X34290Y40640
X31750Y40640
X29210Y40640
X26670Y40640
X24130Y40640
X21590Y40640
X19050Y40640
X16510Y40640
X13970Y40640
X11430Y40640
X48260Y33020
X50800Y33020
X53340Y33020
X55880Y33020
X58420Y33020
X60960Y33020
X63500Y33020
X66040Y33020
X68580Y33020
X71120Y33020
X71120Y40640
X68580Y40640
X66040Y40640
X63500Y40640
X60960Y40640
X58420Y40640
X55880Y40640
X53340Y40640
X50800Y40640
X48260Y40640
X119380Y3810
X121920Y3810
X124460Y3810
X127000Y3810
X129540Y3810
X132080Y3810
X134620Y3810
X137160Y3810
X139700Y3810
X142240Y3810
X142240Y11430
X139700Y11430
X137160Y11430
X134620Y11430
X132080Y11430
X129540Y11430
X127000Y11430
X124460Y11430
X121920Y11430
X119380Y11430
X85700Y46990
X85700Y49530
X85700Y52070
X85700Y54610
X85700Y57150
X85700Y59690
X85700Y62230
X85700Y64770
X85700Y67310
X85700Y69850
X78080Y69850
X78080Y67310
X78080Y64770
X78080Y62230
X78080Y59690
X78080Y57150
X78080Y54610
X78080Y52070
X78080Y49530
X78080Y46990
X187960Y52070
X190500Y52070
X154178Y58369
X154178Y68529
X159565Y80010
X159565Y90170
X151189Y80010
X151189Y90170
X142812Y80010
X142812Y90170
X134435Y80010
X134435Y90170
X170231Y37871
X160071Y37871
X175260Y36830
X177800Y39370
X180340Y36830
X64130Y59420
X64130Y69580
X70480Y61960
X199390Y105410
X199390Y107950
X199390Y110490
X191770Y110490
X191770Y107950
X191770Y105410
X163043Y117170
X159537Y117170
X190500Y44450
X187960Y44450
X9398Y67945
X11938Y67945
X14478Y67945
X11430Y33020
M30