M48
;GenerationSoftware,Autodesk,EAGLE,9.6.1*%
;CreationDate,2021-04-14T08:48:49Z*%
FMAT,2
ICI,OFF
METRIC,TZ,000.000
T1C0.350
%
G90
M71
T1
X61824Y77787
X201917Y32893
X199555Y45872
X131039Y25476
X129388Y33129
X132461Y36398
X119736Y41224
X115265Y45060
X109728Y50800
X106858Y53264
X71653Y81229
X71145Y83668
X33630Y110515
X124365Y29797
X127546Y33129
X130632Y36398
X123086Y54889
X46838Y110998
X34950Y122403
X99035Y84303
X120599Y29870
X125705Y33129
X130835Y38303
X116466Y95954
X102997Y104587
X88263Y114275
X57404Y123342
X125654Y37897
X115412Y97618
X106655Y104587
X97790Y114986
X114498Y97059
X105613Y104587
X95580Y115087
X119482Y71247
X119609Y97925
X124536Y104587
X130191Y115579
X113234Y63958
X168731Y73430
X65380Y77687
X30201Y77749
X27861Y69580
X25197Y64173
X17780Y90361
X68085Y74778
X70637Y77687
X106388Y73063
X121844Y14122
X99670Y11684
X78308Y24613
X65507Y43409
X67843Y35839
X64541Y39395
X81458Y29271
X36357Y85014
X51004Y50552
X81250Y37146
X82578Y29365
X68519Y42570
X83185Y33274
X85446Y31293
X88087Y29235
X72489Y30562
X75417Y24717
X79705Y22860
X76683Y31191
X71349Y43205
X60577Y44681
X60122Y29245
X60122Y22781
X16005Y43358
X17015Y43358
X20930Y31823
X7417Y32182
X7366Y44933
X25171Y31823
X12701Y45439
X16332Y95377
X36932Y30229
X25760Y30983
X28219Y30277
X57912Y41920
X54102Y71574
X49276Y76683
X67310Y43409
X70104Y52502
X72263Y62484
X73508Y68123
X74092Y74473
X76632Y77622
X72949Y81432
X91821Y113106
X128522Y123345
X108890Y3734
X109880Y11049
X110363Y13665
X110388Y26518
X109779Y66700
X111531Y78080
X113157Y94209
X128905Y104191
X61722Y10135
X65151Y1803
X110891Y11074
X111404Y13589
X111481Y26695
X111373Y65354
X112801Y78029
X113563Y93066
X130327Y103835
X151496Y132105
X110014Y3540
X13600Y46287
X38399Y40392
X49926Y38120
X14738Y46262
X49977Y36881
X38857Y38664
X68351Y11455
X20216Y62359
X10334Y30737
X19660Y44625
X23190Y44625
X32487Y28851
X33147Y26235
X34061Y22555
X35433Y14285
X44196Y29286
X44171Y27330
X45466Y29108
X51511Y27305
X49682Y26235
X170725Y71436
X18799Y53162
X45237Y40193
X58699Y29245
X63271Y22758
X27254Y76121
X28061Y54998
X57975Y44407
X67182Y29296
X70866Y22755
X27934Y53975
X51765Y42606
X58893Y35738
X67183Y22758
X82728Y34595
X49759Y49606
X51716Y51384
X86964Y36469
X51741Y52433
X83264Y50499
X87309Y46847
X90300Y43840
X69053Y37795
X82305Y32445
X83642Y58757
X91240Y50143
X96557Y42023
X73561Y53478
X85141Y41453
X81382Y45161
X83264Y51573
X100990Y33779
X96644Y40335
X96644Y38444
X87274Y49352
X90808Y45695
X131839Y7556
X178559Y47574
X169045Y20302
X185939Y11344
X192024Y21412
X190929Y33165
X187008Y10832
X194285Y11582
X191745Y24130
X167627Y19393
X166395Y20701
X187361Y8468
X156210Y22835
X194682Y53814
X173939Y54531
X189459Y50623
X168862Y61115
X167869Y55042
X170307Y59461
X180188Y55499
X182118Y55677
X183820Y56083
X199187Y69266
X201447Y65024
X185418Y28044
X200838Y26213
X153645Y28727
X177648Y20904
X172966Y21539
X173332Y28956
X180787Y21844
X186469Y21542
X186487Y28880
X182880Y34338
X174428Y19640
X190580Y19228
X172189Y20717
X170330Y28196
X187491Y18602
X170132Y21542
X169926Y26670
X56667Y77687
X66802Y77687
X35535Y82827
X38227Y82827
X49657Y79502
X53232Y76715
X57506Y83589
X59538Y77687
X60503Y75616
X58801Y83741
X64033Y83741
X197510Y37719
X192862Y33909
X185877Y44272
M30