G04 EAGLE Gerber RS-274X export*
G75*
%MOMM*%
%FSLAX34Y34*%
%LPD*%
%IN*%
%IPPOS*%
%AMOC8*
5,1,8,0,0,1.08239X$1,22.5*%
G01*
%ADD10C,0.254000*%


D10*
X0Y0D02*
X2260600Y0D01*
X2260600Y1338580D01*
X0Y1338580D01*
X0Y0D01*
X1806500Y1279460D02*
X1806429Y1278382D01*
X1806288Y1277311D01*
X1806078Y1276251D01*
X1805798Y1275208D01*
X1805451Y1274185D01*
X1805037Y1273187D01*
X1804560Y1272218D01*
X1804019Y1271282D01*
X1803419Y1270384D01*
X1802762Y1269527D01*
X1802049Y1268715D01*
X1801285Y1267951D01*
X1800473Y1267239D01*
X1799616Y1266581D01*
X1798718Y1265981D01*
X1797782Y1265441D01*
X1796813Y1264963D01*
X1795815Y1264549D01*
X1794792Y1264202D01*
X1793749Y1263922D01*
X1792689Y1263712D01*
X1791618Y1263571D01*
X1790540Y1263500D01*
X1789460Y1263500D01*
X1788382Y1263571D01*
X1787311Y1263712D01*
X1786251Y1263922D01*
X1785208Y1264202D01*
X1784185Y1264549D01*
X1783187Y1264963D01*
X1782218Y1265441D01*
X1781282Y1265981D01*
X1780384Y1266581D01*
X1779527Y1267239D01*
X1778715Y1267951D01*
X1777951Y1268715D01*
X1777239Y1269527D01*
X1776581Y1270384D01*
X1775981Y1271282D01*
X1775441Y1272218D01*
X1774963Y1273187D01*
X1774549Y1274185D01*
X1774202Y1275208D01*
X1773922Y1276251D01*
X1773712Y1277311D01*
X1773571Y1278382D01*
X1773500Y1279460D01*
X1773500Y1280540D01*
X1773571Y1281618D01*
X1773712Y1282689D01*
X1773922Y1283749D01*
X1774202Y1284792D01*
X1774549Y1285815D01*
X1774963Y1286813D01*
X1775441Y1287782D01*
X1775981Y1288718D01*
X1776581Y1289616D01*
X1777239Y1290473D01*
X1777951Y1291285D01*
X1778715Y1292049D01*
X1779527Y1292762D01*
X1780384Y1293419D01*
X1781282Y1294019D01*
X1782218Y1294560D01*
X1783187Y1295037D01*
X1784185Y1295451D01*
X1785208Y1295798D01*
X1786251Y1296078D01*
X1787311Y1296288D01*
X1788382Y1296429D01*
X1789460Y1296500D01*
X1790540Y1296500D01*
X1791618Y1296429D01*
X1792689Y1296288D01*
X1793749Y1296078D01*
X1794792Y1295798D01*
X1795815Y1295451D01*
X1796813Y1295037D01*
X1797782Y1294560D01*
X1798718Y1294019D01*
X1799616Y1293419D01*
X1800473Y1292762D01*
X1801285Y1292049D01*
X1802049Y1291285D01*
X1802762Y1290473D01*
X1803419Y1289616D01*
X1804019Y1288718D01*
X1804560Y1287782D01*
X1805037Y1286813D01*
X1805451Y1285815D01*
X1805798Y1284792D01*
X1806078Y1283749D01*
X1806288Y1282689D01*
X1806429Y1281618D01*
X1806500Y1280540D01*
X1806500Y1279460D01*
X2233518Y50654D02*
X2233447Y49576D01*
X2233306Y48505D01*
X2233096Y47445D01*
X2232816Y46402D01*
X2232469Y45379D01*
X2232055Y44381D01*
X2231578Y43412D01*
X2231037Y42476D01*
X2230437Y41578D01*
X2229780Y40721D01*
X2229067Y39909D01*
X2228303Y39145D01*
X2227491Y38433D01*
X2226634Y37775D01*
X2225736Y37175D01*
X2224800Y36635D01*
X2223831Y36157D01*
X2222833Y35743D01*
X2221810Y35396D01*
X2220767Y35116D01*
X2219707Y34906D01*
X2218636Y34765D01*
X2217558Y34694D01*
X2216478Y34694D01*
X2215400Y34765D01*
X2214329Y34906D01*
X2213269Y35116D01*
X2212226Y35396D01*
X2211203Y35743D01*
X2210205Y36157D01*
X2209236Y36635D01*
X2208300Y37175D01*
X2207402Y37775D01*
X2206545Y38433D01*
X2205733Y39145D01*
X2204969Y39909D01*
X2204257Y40721D01*
X2203599Y41578D01*
X2202999Y42476D01*
X2202459Y43412D01*
X2201981Y44381D01*
X2201567Y45379D01*
X2201220Y46402D01*
X2200940Y47445D01*
X2200730Y48505D01*
X2200589Y49576D01*
X2200518Y50654D01*
X2200518Y51734D01*
X2200589Y52812D01*
X2200730Y53883D01*
X2200940Y54943D01*
X2201220Y55986D01*
X2201567Y57009D01*
X2201981Y58007D01*
X2202459Y58976D01*
X2202999Y59912D01*
X2203599Y60810D01*
X2204257Y61667D01*
X2204969Y62479D01*
X2205733Y63243D01*
X2206545Y63956D01*
X2207402Y64613D01*
X2208300Y65213D01*
X2209236Y65754D01*
X2210205Y66231D01*
X2211203Y66645D01*
X2212226Y66992D01*
X2213269Y67272D01*
X2214329Y67482D01*
X2215400Y67623D01*
X2216478Y67694D01*
X2217558Y67694D01*
X2218636Y67623D01*
X2219707Y67482D01*
X2220767Y67272D01*
X2221810Y66992D01*
X2222833Y66645D01*
X2223831Y66231D01*
X2224800Y65754D01*
X2225736Y65213D01*
X2226634Y64613D01*
X2227491Y63956D01*
X2228303Y63243D01*
X2229067Y62479D01*
X2229780Y61667D01*
X2230437Y60810D01*
X2231037Y59912D01*
X2231578Y58976D01*
X2232055Y58007D01*
X2232469Y57009D01*
X2232816Y55986D01*
X2233096Y54943D01*
X2233306Y53883D01*
X2233447Y52812D01*
X2233518Y51734D01*
X2233518Y50654D01*
X76500Y59460D02*
X76429Y58382D01*
X76288Y57311D01*
X76078Y56251D01*
X75798Y55208D01*
X75451Y54185D01*
X75037Y53187D01*
X74560Y52218D01*
X74019Y51282D01*
X73419Y50384D01*
X72762Y49527D01*
X72049Y48715D01*
X71285Y47951D01*
X70473Y47239D01*
X69616Y46581D01*
X68718Y45981D01*
X67782Y45441D01*
X66813Y44963D01*
X65815Y44549D01*
X64792Y44202D01*
X63749Y43922D01*
X62689Y43712D01*
X61618Y43571D01*
X60540Y43500D01*
X59460Y43500D01*
X58382Y43571D01*
X57311Y43712D01*
X56251Y43922D01*
X55208Y44202D01*
X54185Y44549D01*
X53187Y44963D01*
X52218Y45441D01*
X51282Y45981D01*
X50384Y46581D01*
X49527Y47239D01*
X48715Y47951D01*
X47951Y48715D01*
X47239Y49527D01*
X46581Y50384D01*
X45981Y51282D01*
X45441Y52218D01*
X44963Y53187D01*
X44549Y54185D01*
X44202Y55208D01*
X43922Y56251D01*
X43712Y57311D01*
X43571Y58382D01*
X43500Y59460D01*
X43500Y60540D01*
X43571Y61618D01*
X43712Y62689D01*
X43922Y63749D01*
X44202Y64792D01*
X44549Y65815D01*
X44963Y66813D01*
X45441Y67782D01*
X45981Y68718D01*
X46581Y69616D01*
X47239Y70473D01*
X47951Y71285D01*
X48715Y72049D01*
X49527Y72762D01*
X50384Y73419D01*
X51282Y74019D01*
X52218Y74560D01*
X53187Y75037D01*
X54185Y75451D01*
X55208Y75798D01*
X56251Y76078D01*
X57311Y76288D01*
X58382Y76429D01*
X59460Y76500D01*
X60540Y76500D01*
X61618Y76429D01*
X62689Y76288D01*
X63749Y76078D01*
X64792Y75798D01*
X65815Y75451D01*
X66813Y75037D01*
X67782Y74560D01*
X68718Y74019D01*
X69616Y73419D01*
X70473Y72762D01*
X71285Y72049D01*
X72049Y71285D01*
X72762Y70473D01*
X73419Y69616D01*
X74019Y68718D01*
X74560Y67782D01*
X75037Y66813D01*
X75451Y65815D01*
X75798Y64792D01*
X76078Y63749D01*
X76288Y62689D01*
X76429Y61618D01*
X76500Y60540D01*
X76500Y59460D01*
X76500Y1279460D02*
X76429Y1278382D01*
X76288Y1277311D01*
X76078Y1276251D01*
X75798Y1275208D01*
X75451Y1274185D01*
X75037Y1273187D01*
X74560Y1272218D01*
X74019Y1271282D01*
X73419Y1270384D01*
X72762Y1269527D01*
X72049Y1268715D01*
X71285Y1267951D01*
X70473Y1267239D01*
X69616Y1266581D01*
X68718Y1265981D01*
X67782Y1265441D01*
X66813Y1264963D01*
X65815Y1264549D01*
X64792Y1264202D01*
X63749Y1263922D01*
X62689Y1263712D01*
X61618Y1263571D01*
X60540Y1263500D01*
X59460Y1263500D01*
X58382Y1263571D01*
X57311Y1263712D01*
X56251Y1263922D01*
X55208Y1264202D01*
X54185Y1264549D01*
X53187Y1264963D01*
X52218Y1265441D01*
X51282Y1265981D01*
X50384Y1266581D01*
X49527Y1267239D01*
X48715Y1267951D01*
X47951Y1268715D01*
X47239Y1269527D01*
X46581Y1270384D01*
X45981Y1271282D01*
X45441Y1272218D01*
X44963Y1273187D01*
X44549Y1274185D01*
X44202Y1275208D01*
X43922Y1276251D01*
X43712Y1277311D01*
X43571Y1278382D01*
X43500Y1279460D01*
X43500Y1280540D01*
X43571Y1281618D01*
X43712Y1282689D01*
X43922Y1283749D01*
X44202Y1284792D01*
X44549Y1285815D01*
X44963Y1286813D01*
X45441Y1287782D01*
X45981Y1288718D01*
X46581Y1289616D01*
X47239Y1290473D01*
X47951Y1291285D01*
X48715Y1292049D01*
X49527Y1292762D01*
X50384Y1293419D01*
X51282Y1294019D01*
X52218Y1294560D01*
X53187Y1295037D01*
X54185Y1295451D01*
X55208Y1295798D01*
X56251Y1296078D01*
X57311Y1296288D01*
X58382Y1296429D01*
X59460Y1296500D01*
X60540Y1296500D01*
X61618Y1296429D01*
X62689Y1296288D01*
X63749Y1296078D01*
X64792Y1295798D01*
X65815Y1295451D01*
X66813Y1295037D01*
X67782Y1294560D01*
X68718Y1294019D01*
X69616Y1293419D01*
X70473Y1292762D01*
X71285Y1292049D01*
X72049Y1291285D01*
X72762Y1290473D01*
X73419Y1289616D01*
X74019Y1288718D01*
X74560Y1287782D01*
X75037Y1286813D01*
X75451Y1285815D01*
X75798Y1284792D01*
X76078Y1283749D01*
X76288Y1282689D01*
X76429Y1281618D01*
X76500Y1280540D01*
X76500Y1279460D01*
X1146500Y709460D02*
X1146429Y708382D01*
X1146288Y707311D01*
X1146078Y706251D01*
X1145798Y705208D01*
X1145451Y704185D01*
X1145037Y703187D01*
X1144560Y702218D01*
X1144019Y701282D01*
X1143419Y700384D01*
X1142762Y699527D01*
X1142049Y698715D01*
X1141285Y697951D01*
X1140473Y697239D01*
X1139616Y696581D01*
X1138718Y695981D01*
X1137782Y695441D01*
X1136813Y694963D01*
X1135815Y694549D01*
X1134792Y694202D01*
X1133749Y693922D01*
X1132689Y693712D01*
X1131618Y693571D01*
X1130540Y693500D01*
X1129460Y693500D01*
X1128382Y693571D01*
X1127311Y693712D01*
X1126251Y693922D01*
X1125208Y694202D01*
X1124185Y694549D01*
X1123187Y694963D01*
X1122218Y695441D01*
X1121282Y695981D01*
X1120384Y696581D01*
X1119527Y697239D01*
X1118715Y697951D01*
X1117951Y698715D01*
X1117239Y699527D01*
X1116581Y700384D01*
X1115981Y701282D01*
X1115441Y702218D01*
X1114963Y703187D01*
X1114549Y704185D01*
X1114202Y705208D01*
X1113922Y706251D01*
X1113712Y707311D01*
X1113571Y708382D01*
X1113500Y709460D01*
X1113500Y710540D01*
X1113571Y711618D01*
X1113712Y712689D01*
X1113922Y713749D01*
X1114202Y714792D01*
X1114549Y715815D01*
X1114963Y716813D01*
X1115441Y717782D01*
X1115981Y718718D01*
X1116581Y719616D01*
X1117239Y720473D01*
X1117951Y721285D01*
X1118715Y722049D01*
X1119527Y722762D01*
X1120384Y723419D01*
X1121282Y724019D01*
X1122218Y724560D01*
X1123187Y725037D01*
X1124185Y725451D01*
X1125208Y725798D01*
X1126251Y726078D01*
X1127311Y726288D01*
X1128382Y726429D01*
X1129460Y726500D01*
X1130540Y726500D01*
X1131618Y726429D01*
X1132689Y726288D01*
X1133749Y726078D01*
X1134792Y725798D01*
X1135815Y725451D01*
X1136813Y725037D01*
X1137782Y724560D01*
X1138718Y724019D01*
X1139616Y723419D01*
X1140473Y722762D01*
X1141285Y722049D01*
X1142049Y721285D01*
X1142762Y720473D01*
X1143419Y719616D01*
X1144019Y718718D01*
X1144560Y717782D01*
X1145037Y716813D01*
X1145451Y715815D01*
X1145798Y714792D01*
X1146078Y713749D01*
X1146288Y712689D01*
X1146429Y711618D01*
X1146500Y710540D01*
X1146500Y709460D01*
M02*
