G04 EAGLE Gerber RS-274X export*
G75*
%MOMM*%
%FSLAX34Y34*%
%LPD*%
%INSilkscreen Bottom*%
%IPPOS*%
%AMOC8*
5,1,8,0,0,1.08239X$1,22.5*%
G01*
%ADD10C,0.508000*%


D10*
X2237994Y1282700D02*
X2237996Y1282578D01*
X2238002Y1282456D01*
X2238012Y1282334D01*
X2238025Y1282213D01*
X2238043Y1282092D01*
X2238064Y1281972D01*
X2238090Y1281852D01*
X2238119Y1281734D01*
X2238151Y1281616D01*
X2238188Y1281499D01*
X2238228Y1281384D01*
X2238272Y1281270D01*
X2238320Y1281158D01*
X2238371Y1281047D01*
X2238426Y1280938D01*
X2238484Y1280830D01*
X2238546Y1280725D01*
X2238611Y1280622D01*
X2238679Y1280520D01*
X2238751Y1280421D01*
X2238825Y1280325D01*
X2238903Y1280230D01*
X2238984Y1280139D01*
X2239067Y1280049D01*
X2239153Y1279963D01*
X2239243Y1279880D01*
X2239334Y1279799D01*
X2239429Y1279721D01*
X2239525Y1279647D01*
X2239624Y1279575D01*
X2239726Y1279507D01*
X2239829Y1279442D01*
X2239934Y1279380D01*
X2240042Y1279322D01*
X2240151Y1279267D01*
X2240262Y1279216D01*
X2240374Y1279168D01*
X2240488Y1279124D01*
X2240603Y1279084D01*
X2240720Y1279047D01*
X2240838Y1279015D01*
X2240956Y1278986D01*
X2241076Y1278960D01*
X2241196Y1278939D01*
X2241317Y1278921D01*
X2241438Y1278908D01*
X2241560Y1278898D01*
X2241682Y1278892D01*
X2241804Y1278890D01*
X2241926Y1278892D01*
X2242048Y1278898D01*
X2242170Y1278908D01*
X2242291Y1278921D01*
X2242412Y1278939D01*
X2242532Y1278960D01*
X2242652Y1278986D01*
X2242770Y1279015D01*
X2242888Y1279047D01*
X2243005Y1279084D01*
X2243120Y1279124D01*
X2243234Y1279168D01*
X2243346Y1279216D01*
X2243457Y1279267D01*
X2243566Y1279322D01*
X2243674Y1279380D01*
X2243779Y1279442D01*
X2243882Y1279507D01*
X2243984Y1279575D01*
X2244083Y1279647D01*
X2244179Y1279721D01*
X2244274Y1279799D01*
X2244365Y1279880D01*
X2244455Y1279963D01*
X2244541Y1280049D01*
X2244624Y1280139D01*
X2244705Y1280230D01*
X2244783Y1280325D01*
X2244857Y1280421D01*
X2244929Y1280520D01*
X2244997Y1280622D01*
X2245062Y1280725D01*
X2245124Y1280830D01*
X2245182Y1280938D01*
X2245237Y1281047D01*
X2245288Y1281158D01*
X2245336Y1281270D01*
X2245380Y1281384D01*
X2245420Y1281499D01*
X2245457Y1281616D01*
X2245489Y1281734D01*
X2245518Y1281852D01*
X2245544Y1281972D01*
X2245565Y1282092D01*
X2245583Y1282213D01*
X2245596Y1282334D01*
X2245606Y1282456D01*
X2245612Y1282578D01*
X2245614Y1282700D01*
X2245612Y1282822D01*
X2245606Y1282944D01*
X2245596Y1283066D01*
X2245583Y1283187D01*
X2245565Y1283308D01*
X2245544Y1283428D01*
X2245518Y1283548D01*
X2245489Y1283666D01*
X2245457Y1283784D01*
X2245420Y1283901D01*
X2245380Y1284016D01*
X2245336Y1284130D01*
X2245288Y1284242D01*
X2245237Y1284353D01*
X2245182Y1284462D01*
X2245124Y1284570D01*
X2245062Y1284675D01*
X2244997Y1284778D01*
X2244929Y1284880D01*
X2244857Y1284979D01*
X2244783Y1285075D01*
X2244705Y1285170D01*
X2244624Y1285261D01*
X2244541Y1285351D01*
X2244455Y1285437D01*
X2244365Y1285520D01*
X2244274Y1285601D01*
X2244179Y1285679D01*
X2244083Y1285753D01*
X2243984Y1285825D01*
X2243882Y1285893D01*
X2243779Y1285958D01*
X2243674Y1286020D01*
X2243566Y1286078D01*
X2243457Y1286133D01*
X2243346Y1286184D01*
X2243234Y1286232D01*
X2243120Y1286276D01*
X2243005Y1286316D01*
X2242888Y1286353D01*
X2242770Y1286385D01*
X2242652Y1286414D01*
X2242532Y1286440D01*
X2242412Y1286461D01*
X2242291Y1286479D01*
X2242170Y1286492D01*
X2242048Y1286502D01*
X2241926Y1286508D01*
X2241804Y1286510D01*
X2241682Y1286508D01*
X2241560Y1286502D01*
X2241438Y1286492D01*
X2241317Y1286479D01*
X2241196Y1286461D01*
X2241076Y1286440D01*
X2240956Y1286414D01*
X2240838Y1286385D01*
X2240720Y1286353D01*
X2240603Y1286316D01*
X2240488Y1286276D01*
X2240374Y1286232D01*
X2240262Y1286184D01*
X2240151Y1286133D01*
X2240042Y1286078D01*
X2239934Y1286020D01*
X2239829Y1285958D01*
X2239726Y1285893D01*
X2239624Y1285825D01*
X2239525Y1285753D01*
X2239429Y1285679D01*
X2239334Y1285601D01*
X2239243Y1285520D01*
X2239153Y1285437D01*
X2239067Y1285351D01*
X2238984Y1285261D01*
X2238903Y1285170D01*
X2238825Y1285075D01*
X2238751Y1284979D01*
X2238679Y1284880D01*
X2238611Y1284778D01*
X2238546Y1284675D01*
X2238484Y1284570D01*
X2238426Y1284462D01*
X2238371Y1284353D01*
X2238320Y1284242D01*
X2238272Y1284130D01*
X2238228Y1284016D01*
X2238188Y1283901D01*
X2238151Y1283784D01*
X2238119Y1283666D01*
X2238090Y1283548D01*
X2238064Y1283428D01*
X2238043Y1283308D01*
X2238025Y1283187D01*
X2238012Y1283066D01*
X2238002Y1282944D01*
X2237996Y1282822D01*
X2237994Y1282700D01*
M02*
